<svg xmlns="http://www.w3.org/2000/svg" xmlns:xlink="http://www.w3.org/1999/xlink" width="135.595" height="47.277" viewBox="0 0 135.595 47.277">
  <defs>
    <radialGradient id="radial-gradient" cx="0.5" cy="0.5" r="0.5" gradientUnits="objectBoundingBox">
      <stop offset="0" stop-color="#f7ab1a"/>
      <stop offset="0.433" stop-color="#e89a25"/>
      <stop offset="1" stop-color="#d88832"/>
    </radialGradient>
  </defs>
  <g id="Group_172" data-name="Group 172" transform="translate(-110.346 -192.259)">
    <path id="Union_3" data-name="Union 3" d="M-1435.834,1106.436q-.19-.8-.345-1.6a35.488,35.488,0,0,1-.6-5.718,35.377,35.377,0,0,1,5.709.6q.8.153,1.589.341a34.941,34.941,0,0,1,6.2,2.108,14.869,14.869,0,0,1-.633,1.882,14.879,14.879,0,0,1-2.034,3.413,10.512,10.512,0,0,0-5.3-2.81,10.527,10.527,0,0,0,2.81,5.3,14.861,14.861,0,0,1-3.413,2.033,14.675,14.675,0,0,1-1.869.631A34.9,34.9,0,0,1-1435.834,1106.436Zm-7.653,5.552a14.861,14.861,0,0,1-3.413-2.033,10.534,10.534,0,0,0,2.81-5.3,10.515,10.515,0,0,0-5.3,2.81,14.91,14.91,0,0,1-2.033-3.413,14.807,14.807,0,0,1-.634-1.882,34.97,34.97,0,0,1,6.2-2.108q.788-.188,1.589-.341a35.364,35.364,0,0,1,5.709-.6,35.571,35.571,0,0,1-.6,5.718c-.1.539-.219,1.073-.345,1.6a34.9,34.9,0,0,1-2.1,6.183A14.638,14.638,0,0,1-1443.487,1111.988Zm7.308-20.347q.154-.81.345-1.6a34.944,34.944,0,0,1,2.1-6.182,14.655,14.655,0,0,1,1.869.631,14.919,14.919,0,0,1,3.413,2.032,10.537,10.537,0,0,0-2.81,5.3,10.519,10.519,0,0,0,5.3-2.81,14.848,14.848,0,0,1,2.034,3.414,14.806,14.806,0,0,1,.633,1.881,34.882,34.882,0,0,1-6.2,2.108q-.788.188-1.589.34a35.267,35.267,0,0,1-5.709.6A35.454,35.454,0,0,1-1436.179,1091.641Zm-8.095,5.112q-.8-.151-1.589-.34a34.911,34.911,0,0,1-6.2-2.108,14.745,14.745,0,0,1,.634-1.881,14.879,14.879,0,0,1,2.033-3.414,10.522,10.522,0,0,0,5.3,2.81,10.544,10.544,0,0,0-2.81-5.3,14.918,14.918,0,0,1,3.413-2.032,14.618,14.618,0,0,1,1.869-.631,34.934,34.934,0,0,1,2.1,6.182c.126.53.242,1.065.345,1.6a35.537,35.537,0,0,1,.6,5.716h0A35.254,35.254,0,0,1-1444.273,1096.753Z" transform="translate(1563 -891)" stroke="rgba(0,0,0,0)" stroke-miterlimit="10" stroke-width="1" fill="url(#radial-gradient)"/>
    <path id="Path_5" data-name="Path 5" d="M312.209,241.607H281.981v7.849h10v28.385H302.2V249.456h10Z" transform="translate(-134.383 -38.304)" fill="#d4333a"/>
    <path id="Path_6" data-name="Path 6" d="M453.326,241.607v20.829l-12.763-20.829H430.345v36.233h10.219V257.213l12.763,20.628h10.219V241.607Z" transform="translate(-250.949 -38.304)" fill="#d4333a" fill-rule="evenodd"/>
    <path id="Path_7" data-name="Path 7" d="M608.465,256.981v6.15h5.651v6.732h-8.748a2.38,2.38,0,0,1-2.563-2.55V252.694q0-3.06,3.075-3.06h18.473v-8.029H602.827q-5.381,0-7.815,2.425t-2.435,7.782v16.331q0,5,2.358,7.349t7.38,2.346h7.124c.183,0,.362-.008.543-.01h14.371V256.981Z" transform="translate(-378.411 -38.303)" fill="#d53337"/>
  </g>
</svg>
